<svg xmlns="http://www.w3.org/2000/svg" width="629" height="427" viewBox="0 0 629 427">
<g>
<path d="M 227.50 193.18 C218.15,194.67 209.54,195.92 208.37,195.95 C206.07,196.00 203.71,193.08 202.68,188.93 C202.34,187.51 200.95,184.73 199.60,182.75 C193.86,174.29 187.02,153.06 184.90,137.16 C182.63,120.10 185.57,97.46 191.57,85.86 C193.22,82.68 193.59,82.68 200.81,85.69 L 204.29 87.15 L 203.75 107.60 C203.19,128.59 203.92,139.35 206.57,149.00 C208.21,154.95 215.12,173.21 215.57,172.76 C215.72,172.61 216.35,167.91 216.96,162.32 C218.42,149.10 221.09,139.60 226.45,128.50 C231.52,118.00 236.94,110.78 246.00,102.43 C264.81,85.09 281.39,77.49 306.00,74.91 C318.22,73.63 329.39,74.66 340.78,78.12 C347.48,80.16 362.31,87.53 370.14,92.71 L 374.27 95.44 L 368.88 100.29 C365.92,102.95 361.75,106.34 359.60,107.82 C357.46,109.29 355.16,110.90 354.51,111.40 C353.74,111.97 352.27,111.53 350.41,110.17 C346.33,107.18 327.80,101.34 319.88,100.54 C305.03,99.04 283.17,104.90 272.23,113.32 C251.06,129.61 239.17,156.47 242.91,179.54 C243.53,183.37 244.14,187.39 244.27,188.48 C244.48,190.29 243.07,190.69 227.50,193.18 ZM 321.61 212.74 C318.43,217.83 315.43,222.23 314.94,222.54 C314.46,222.84 307.86,214.67 300.28,204.39 C292.70,194.12 284.37,183.19 281.76,180.10 C279.15,177.02 277.01,174.10 277.01,173.61 C277.00,173.13 274.08,168.80 270.50,164.00 C266.92,159.20 264.00,154.83 264.00,154.30 C264.00,153.77 266.55,151.58 269.66,149.43 C272.78,147.29 275.81,145.06 276.41,144.48 C278.36,142.60 283.79,139.00 284.65,139.01 C285.12,139.02 291.80,146.69 299.50,156.07 L 313.50 173.11 L 316.50 169.38 C320.51,164.40 339.02,142.69 348.81,131.50 C355.91,123.39 372.98,107.00 374.33,107.00 C374.63,107.00 379.97,102.92 386.19,97.93 C396.21,89.89 404.39,84.18 425.33,70.57 C435.25,64.13 465.36,51.00 470.21,51.00 C470.79,51.00 466.82,53.98 461.38,57.63 C447.60,66.88 432.99,78.44 422.99,88.02 C418.32,92.49 409.92,100.44 404.31,105.67 C390.40,118.67 356.49,158.87 351.89,167.82 C350.26,170.97 344.12,179.89 342.19,181.90 C340.52,183.64 329.32,200.43 321.61,212.74 ZM 196.07 270.25 C189.89,276.68 181.21,285.20 176.79,289.19 C169.28,295.96 168.78,296.24 169.35,293.47 C169.68,291.84 171.13,282.85 172.56,273.50 C173.99,264.15 175.57,254.30 176.08,251.61 C176.58,248.93 177.00,246.00 177.00,245.11 C177.00,244.02 169.25,239.46 153.02,231.00 C139.83,224.12 129.03,218.16 129.02,217.75 C129.01,217.34 129.79,217.01 130.75,217.01 C131.71,217.02 143.63,215.35 157.23,213.29 C173.32,210.86 182.12,209.12 182.44,208.29 C182.71,207.60 183.63,201.96 184.50,195.76 C185.37,189.57 186.32,183.38 186.62,182.00 C187.15,179.55 187.19,179.54 188.64,181.50 C189.45,182.60 192.16,187.38 194.66,192.12 C197.17,196.86 200.18,201.92 201.36,203.37 L 203.50 205.99 L 233.00 201.51 C249.23,199.04 264.48,196.60 266.90,196.10 L 271.30 195.18 L 231.50 235.07 L 238.20 248.28 C241.89,255.55 247.43,266.61 250.51,272.86 L 256.12 284.21 L 241.31 276.47 C233.17,272.21 222.18,266.44 216.90,263.65 L 207.30 258.57 ZM 433.05 262.23 C434.17,267.75 434.96,272.90 434.80,273.66 C434.62,274.47 431.11,271.66 426.21,266.77 L 417.92 258.50 L 406.96 264.25 C400.62,267.57 396.00,269.47 396.01,268.75 C396.01,268.06 398.22,263.17 400.90,257.87 L 405.79 248.24 L 397.41 239.91 L 389.03 231.57 L 384.00 237.21 C376.53,245.59 367.75,252.03 356.00,257.75 C341.38,264.87 333.12,267.02 318.00,267.67 C307.61,268.11 303.73,267.84 295.05,266.04 C277.58,262.43 256.84,251.76 246.53,241.07 L 242.55 236.96 L 260.83 218.69 L 266.66 223.89 C275.43,231.71 281.86,235.80 289.58,238.49 C304.43,243.65 319.81,244.16 333.50,239.94 C345.58,236.21 351.41,232.49 363.52,220.82 L 369.53 215.02 L 378.58 222.42 C388.58,230.61 391.11,231.61 404.14,232.61 L 412.74 233.27 L 418.03 222.13 C420.94,216.00 423.49,211.15 423.69,211.35 C423.89,211.56 424.47,215.37 424.98,219.83 C425.49,224.29 426.38,229.68 426.95,231.82 L 428.00 235.71 L 437.25 236.91 C446.18,238.07 450.37,238.52 450.55,239.64 C450.71,240.57 448.11,241.96 443.18,244.61 C442.73,244.85 442.25,245.11 441.75,245.38 C435.84,248.55 431.00,251.39 431.00,251.67 C431.00,251.95 431.92,256.71 433.05,262.23 ZM 355.05 371.75 L 355.00 395.00 L 339.00 395.00 L 339.00 322.96 L 349.25 323.34 L 359.50 323.71 L 369.50 343.84 C375.00,354.91 379.78,363.98 380.13,363.99 C380.47,363.99 381.75,361.64 382.98,358.75 C384.20,355.86 388.56,346.64 392.68,338.25 L 400.16 323.00 L 421.00 323.00 L 421.00 395.08 L 404.50 394.50 L 404.47 385.50 C404.45,380.55 404.30,370.42 404.14,363.00 L 403.86 349.50 L 399.68 358.03 C397.38,362.71 393.30,371.38 390.62,377.28 L 385.74 388.00 L 380.62 387.98 C377.80,387.98 375.05,387.64 374.49,387.23 C373.93,386.83 370.41,379.98 366.67,372.00 C362.93,364.02 358.79,355.48 357.48,353.00 L 355.09 348.50 ZM 213.76 381.50 L 208.77 395.00 L 199.89 395.00 C195.00,395.00 191.00,394.63 191.00,394.17 C191.00,393.72 193.70,387.19 197.00,379.66 C200.30,372.14 203.00,365.44 203.00,364.78 C203.00,363.55 211.58,343.28 217.62,330.25 L 220.98 323.00 L 240.58 323.00 L 243.37 328.68 C246.73,335.53 272.00,393.59 272.00,394.46 C272.00,394.80 267.64,394.94 262.32,394.79 L 252.64 394.50 L 247.36 381.50 ZM 116.00 380.00 L 116.00 395.00 L 57.50 395.00 L 57.50 323.00 L 86.25 323.00 L 115.00 323.00 L 115.00 336.00 L 97.08 336.00 C87.23,336.00 78.45,336.27 77.58,336.61 C76.35,337.08 76.00,338.74 76.00,344.11 L 76.00 351.00 L 111.00 351.00 L 111.00 365.00 L 76.00 365.00 L 76.00 380.00 ZM 481.97 393.10 C475.27,395.65 465.74,396.24 458.33,394.56 C448.01,392.22 441.94,387.94 437.45,379.82 L 434.50 374.50 L 433.88 323.00 L 451.90 323.00 L 452.20 346.25 C452.53,371.43 452.91,373.40 458.21,377.32 C462.03,380.15 470.47,380.65 474.97,378.31 C481.89,374.70 482.46,372.37 482.83,346.25 L 483.16 323.00 L 500.25 323.00 L 499.83 349.81 L 499.41 376.62 L 496.75 381.16 C493.61,386.52 488.57,390.60 481.97,393.10 ZM 553.80 393.98 C544.51,396.36 532.29,395.64 523.26,392.20 C516.70,389.70 509.00,385.23 509.00,383.94 C509.00,383.40 510.34,379.99 511.99,376.37 L 514.97 369.79 L 518.24 371.97 C527.04,377.84 538.89,381.57 544.93,380.36 C546.54,380.04 548.87,378.71 550.09,377.40 C552.01,375.36 552.16,374.66 551.19,372.51 C549.58,368.98 544.75,366.33 536.54,364.47 C519.14,360.51 513.00,354.85 513.00,342.78 C513.00,335.76 515.45,331.19 521.00,327.80 C532.74,320.64 550.04,320.43 564.97,327.27 C567.46,328.41 569.62,329.42 569.76,329.52 C569.90,329.61 568.66,332.69 566.99,336.36 L 563.97 343.03 L 560.82 341.41 C550.07,335.85 538.30,334.40 533.63,338.07 C527.88,342.60 531.81,346.61 545.77,350.44 C564.31,355.52 570.52,361.32 570.45,373.50 C570.38,383.97 564.46,391.25 553.80,393.98 ZM 181.04 362.59 L 168.17 394.50 L 159.23 394.79 C152.86,394.99 150.02,394.70 149.30,393.79 C147.36,391.29 131.95,352.68 128.03,340.50 C127.32,338.30 125.45,333.71 123.87,330.29 C122.29,326.88 121.00,323.84 121.00,323.54 C121.00,323.24 125.21,323.00 130.36,323.00 L 139.72 323.00 L 143.84 333.75 C146.11,339.66 150.41,351.25 153.41,359.50 C157.48,370.72 159.04,374.00 159.59,372.50 C159.99,371.40 161.19,368.25 162.26,365.50 C163.32,362.75 166.80,353.30 169.98,344.50 C175.37,329.59 176.63,324.91 179.49,323.51 C180.80,322.87 182.43,322.91 184.94,322.96 C185.75,322.98 186.65,323.00 187.66,323.00 C192.80,323.00 197.00,323.27 197.00,323.60 C197.00,323.93 196.31,325.66 195.46,327.44 C194.61,329.23 188.13,345.05 181.04,362.59 ZM 330.00 379.00 L 330.00 395.00 L 305.17 395.00 C291.51,395.00 280.03,394.70 279.67,394.33 C279.30,393.97 279.00,377.77 279.00,358.33 L 279.00 323.00 L 297.00 323.00 L 297.00 379.00 ZM 216.65 100.25 C213.89,103.96 211.27,107.00 210.82,107.00 C210.37,107.00 210.00,101.65 210.00,95.11 L 210.00 83.22 L 205.75 81.44 C203.41,80.47 198.15,78.46 194.05,76.97 L 186.60 74.27 L 198.27 70.47 L 209.94 66.66 L 210.22 53.61 L 210.50 40.56 L 217.94 51.03 C222.04,56.79 225.43,61.59 225.48,61.70 C225.53,61.82 230.51,60.35 236.54,58.45 C242.57,56.54 248.02,55.10 248.66,55.24 C249.30,55.38 246.73,59.55 242.95,64.50 C239.17,69.45 236.06,74.10 236.04,74.83 C236.02,75.57 238.94,80.47 242.53,85.72 C246.12,90.98 248.89,95.44 248.70,95.63 C248.51,95.82 243.12,94.23 236.73,92.08 L 225.12 88.18 L 223.39 90.84 C222.44,92.30 219.41,96.54 216.65,100.25 ZM 391.05 265.15 L 385.14 277.50 L 374.82 277.61 C362.67,277.73 359.97,277.48 350.00,275.27 C345.86,274.35 343.39,273.42 344.49,273.18 C347.92,272.45 362.36,265.47 368.33,261.65 C371.47,259.64 375.27,257.99 376.77,257.98 C379.33,257.95 391.38,255.03 395.23,253.49 C396.48,252.99 395.33,256.22 391.05,265.15 ZM 220.28 365.75 C219.90,366.70 222.31,367.00 230.39,367.00 C236.23,367.00 241.00,366.78 241.00,366.52 C241.00,365.73 232.97,345.82 231.59,343.18 C230.27,340.66 229.96,341.28 220.28,365.75 Z" fill="rgb(14,139,104)"/>
<path d="M 438.88 226.56 C437.91,230.41 437.41,231.00 435.13,231.00 C432.58,231.00 432.43,230.66 430.10,219.25 C428.78,212.79 427.20,204.62 426.59,201.11 L 425.49 194.72 L 420.31 204.14 L 419.68 196.06 C418.61,182.09 409.36,158.71 398.16,141.62 C395.32,137.29 393.00,133.00 393.00,132.10 C393.00,131.20 395.70,127.54 398.99,123.98 L 404.99 117.50 L 408.06 121.00 C411.53,124.95 421.38,140.48 423.48,145.32 C431.33,163.37 436.29,177.98 438.58,189.84 C440.27,198.59 440.45,220.32 438.88,226.56 ZM 362.00 76.00 C365.36,78.63 364.82,78.47 355.36,74.02 C341.52,67.52 332.95,65.74 313.64,65.37 C303.80,65.17 293.73,64.40 289.44,63.52 C281.24,61.83 259.37,61.46 254.24,62.93 L 251.00 63.86 L 254.18 59.18 C255.94,56.61 258.86,52.52 260.68,50.11 C262.51,47.69 264.00,45.36 264.00,44.93 C264.00,44.08 258.35,45.60 239.67,51.45 C228.34,55.01 227.78,55.08 226.45,53.33 C225.69,52.32 225.05,51.22 225.03,50.89 C224.96,49.45 237.93,44.65 246.85,42.80 C265.10,39.03 289.89,41.42 312.35,49.11 C327.86,54.43 349.28,66.02 362.00,76.00 Z" fill="rgb(120,188,220)"/>
<path d="M 0.00 213.50 L 0.00 0.00 L 314.50 0.00 L 629.00 0.00 L 629.00 213.50 L 629.00 427.00 L 314.50 427.00 L 0.00 427.00 L 0.00 213.50 ZM 481.97 393.10 C488.57,390.60 493.61,386.52 496.75,381.16 L 499.41 376.62 L 499.83 349.81 L 500.25 323.00 L 491.71 323.00 L 483.16 323.00 L 482.83 346.25 C482.46,372.37 481.89,374.70 474.97,378.31 C470.47,380.65 462.03,380.15 458.21,377.32 C452.91,373.40 452.53,371.43 452.20,346.25 L 451.90 323.00 L 442.89 323.00 L 433.88 323.00 L 434.19 348.75 L 434.50 374.50 L 437.45 379.82 C441.94,387.94 448.01,392.22 458.33,394.56 C465.74,396.24 475.27,395.65 481.97,393.10 ZM 553.80 393.98 C564.46,391.25 570.38,383.97 570.45,373.50 C570.52,361.32 564.31,355.52 545.77,350.44 C531.81,346.61 527.88,342.60 533.63,338.07 C538.30,334.40 550.07,335.85 560.82,341.41 L 563.97 343.03 L 566.99 336.36 C568.66,332.69 569.90,329.61 569.76,329.52 C569.62,329.42 567.46,328.41 564.97,327.27 C550.04,320.43 532.74,320.64 521.00,327.80 C515.45,331.19 513.00,335.76 513.00,342.78 C513.00,354.85 519.14,360.51 536.54,364.47 C544.75,366.33 549.58,368.98 551.19,372.51 C552.16,374.66 552.01,375.36 550.09,377.40 C548.87,378.71 546.54,380.04 544.93,380.36 C538.89,381.57 527.04,377.84 518.24,371.97 L 514.97 369.79 L 511.99 376.37 C510.34,379.99 509.00,383.40 509.00,383.94 C509.00,385.23 516.70,389.70 523.26,392.20 C532.29,395.64 544.51,396.36 553.80,393.98 ZM 116.00 387.50 L 116.00 380.00 L 96.00 380.00 L 76.00 380.00 L 76.00 372.50 L 76.00 365.00 L 93.50 365.00 L 111.00 365.00 L 111.00 358.00 L 111.00 351.00 L 93.50 351.00 L 76.00 351.00 L 76.00 344.11 C76.00,338.74 76.35,337.08 77.58,336.61 C78.45,336.27 87.23,336.00 97.08,336.00 L 115.00 336.00 L 115.00 329.50 L 115.00 323.00 L 86.25 323.00 L 57.50 323.00 L 57.50 359.00 L 57.50 395.00 L 86.75 395.00 L 116.00 395.00 L 116.00 387.50 ZM 181.04 362.59 C188.13,345.05 194.61,329.23 195.46,327.44 C196.31,325.66 197.00,323.93 197.00,323.60 C197.00,323.27 192.80,323.00 187.66,323.00 C176.65,323.00 178.61,320.61 169.98,344.50 C166.80,353.30 163.32,362.75 162.26,365.50 C161.19,368.25 159.99,371.40 159.59,372.50 C159.04,374.00 157.48,370.72 153.41,359.50 C150.41,351.25 146.11,339.66 143.84,333.75 L 139.72 323.00 L 130.36 323.00 C125.21,323.00 121.00,323.24 121.00,323.54 C121.00,323.84 122.29,326.88 123.87,330.29 C125.45,333.71 127.32,338.30 128.03,340.50 C131.95,352.68 147.36,391.29 149.30,393.79 C150.02,394.70 152.86,394.99 159.23,394.79 L 168.17 394.50 L 181.04 362.59 ZM 211.27 388.25 L 213.76 381.50 L 230.56 381.50 L 247.36 381.50 L 250.00 388.00 L 252.64 394.50 L 262.32 394.79 C267.64,394.94 272.00,394.80 272.00,394.46 C272.00,393.59 246.73,335.53 243.37,328.68 L 240.58 323.00 L 230.78 323.00 L 220.98 323.00 L 217.62 330.25 C211.58,343.28 203.00,363.55 203.00,364.78 C203.00,365.44 200.30,372.14 197.00,379.66 C193.70,387.19 191.00,393.72 191.00,394.17 C191.00,394.63 195.00,395.00 199.89,395.00 L 208.77 395.00 L 211.27 388.25 ZM 330.00 387.00 L 330.00 379.00 L 313.50 379.00 L 297.00 379.00 L 297.00 351.00 L 297.00 323.00 L 288.00 323.00 L 279.00 323.00 L 279.00 358.33 C279.00,377.77 279.30,393.97 279.67,394.33 C280.03,394.70 291.51,395.00 305.17,395.00 L 330.00 395.00 L 330.00 387.00 ZM 355.05 371.75 L 355.09 348.50 L 357.48 353.00 C358.79,355.48 362.93,364.02 366.67,372.00 C370.41,379.98 373.93,386.83 374.49,387.23 C375.05,387.64 377.80,387.98 380.62,387.98 L 385.74 388.00 L 390.62 377.28 C393.30,371.38 397.38,362.71 399.68,358.03 L 403.86 349.50 L 404.14 363.00 C404.30,370.42 404.45,380.55 404.47,385.50 L 404.50 394.50 L 412.75 394.79 L 421.00 395.08 L 421.00 359.04 L 421.00 323.00 L 410.58 323.00 L 400.16 323.00 L 392.68 338.25 C388.56,346.64 384.20,355.86 382.98,358.75 C381.75,361.64 380.47,363.99 380.13,363.99 C379.78,363.98 375.00,354.91 369.50,343.84 L 359.50 323.71 L 349.25 323.34 L 339.00 322.96 L 339.00 358.98 L 339.00 395.00 L 347.00 395.00 L 355.00 395.00 L 355.05 371.75 ZM 196.07 270.25 L 207.30 258.57 L 216.90 263.65 C222.18,266.44 233.17,272.21 241.31,276.47 L 256.12 284.21 L 250.51 272.86 C247.43,266.61 241.89,255.55 238.20,248.28 L 231.50 235.07 L 251.40 215.12 L 271.30 195.18 L 266.90 196.10 C264.48,196.60 249.23,199.04 233.00,201.51 L 203.50 205.99 L 201.36 203.37 C200.18,201.92 197.17,196.86 194.66,192.12 C192.16,187.38 189.45,182.60 188.64,181.50 C187.19,179.54 187.15,179.55 186.62,182.00 C186.32,183.38 185.37,189.57 184.50,195.76 C183.63,201.96 182.71,207.60 182.44,208.29 C182.12,209.12 173.32,210.86 157.23,213.29 C143.63,215.35 131.71,217.02 130.75,217.01 C129.79,217.01 129.01,217.34 129.02,217.75 C129.03,218.16 139.83,224.12 153.02,231.00 C169.25,239.46 177.00,244.02 177.00,245.11 C177.00,246.00 176.58,248.93 176.08,251.61 C175.57,254.30 173.99,264.15 172.56,273.50 C171.13,282.85 169.68,291.84 169.35,293.47 C168.78,296.24 169.28,295.96 176.79,289.19 C181.21,285.20 189.89,276.68 196.07,270.25 ZM 391.05 265.15 C395.33,256.22 396.48,252.99 395.23,253.49 C391.38,255.03 379.33,257.95 376.77,257.98 C375.27,257.99 371.47,259.64 368.33,261.65 C362.36,265.47 347.92,272.45 344.49,273.18 C343.39,273.42 345.86,274.35 350.00,275.27 C359.97,277.48 362.67,277.73 374.82,277.61 L 385.14 277.50 L 391.05 265.15 ZM 433.05 262.23 C431.92,256.71 431.00,251.95 431.00,251.67 C431.00,251.39 435.84,248.55 441.75,245.38 C454.07,238.75 454.27,239.13 437.25,236.91 L 428.00 235.71 L 426.95 231.82 C426.38,229.68 425.49,224.29 424.98,219.83 C424.47,215.37 423.89,211.56 423.69,211.35 C423.49,211.15 420.94,216.00 418.03,222.13 L 412.74 233.27 L 404.14 232.61 C391.11,231.61 388.58,230.61 378.58,222.42 L 369.53 215.02 L 363.52 220.82 C351.41,232.49 345.58,236.21 333.50,239.94 C319.81,244.16 304.43,243.65 289.58,238.49 C281.86,235.80 275.43,231.71 266.66,223.89 L 260.83 218.69 L 251.69 227.82 L 242.55 236.96 L 246.53 241.07 C256.84,251.76 277.58,262.43 295.05,266.04 C303.73,267.84 307.61,268.11 318.00,267.67 C333.12,267.02 341.38,264.87 356.00,257.75 C367.75,252.03 376.53,245.59 384.00,237.21 L 389.03 231.57 L 397.41 239.91 L 405.79 248.24 L 400.90 257.87 C398.22,263.17 396.01,268.06 396.01,268.75 C396.00,269.47 400.62,267.57 406.96,264.25 L 417.92 258.50 L 426.21 266.77 C431.11,271.66 434.62,274.47 434.80,273.66 C434.96,272.90 434.17,267.75 433.05,262.23 ZM 438.88 226.56 C440.45,220.32 440.27,198.59 438.58,189.84 C436.29,177.98 431.33,163.37 423.48,145.32 C421.38,140.48 411.53,124.95 408.06,121.00 L 404.99 117.50 L 398.99 123.98 C395.70,127.54 393.00,131.20 393.00,132.10 C393.00,133.00 395.32,137.29 398.16,141.62 C409.36,158.71 418.61,182.09 419.68,196.06 L 420.31 204.14 L 422.90 199.43 L 425.49 194.72 L 426.59 201.11 C427.20,204.62 428.78,212.79 430.10,219.25 C432.43,230.66 432.58,231.00 435.13,231.00 C437.41,231.00 437.91,230.41 438.88,226.56 ZM 321.61 212.74 C329.32,200.43 340.52,183.64 342.19,181.90 C344.12,179.89 350.26,170.97 351.89,167.82 C356.49,158.87 390.40,118.67 404.31,105.67 C409.92,100.44 418.32,92.49 422.99,88.02 C432.99,78.44 447.60,66.88 461.38,57.63 C466.82,53.98 470.79,51.00 470.21,51.00 C465.36,51.00 435.25,64.13 425.33,70.57 C404.39,84.18 396.21,89.89 386.19,97.93 C379.97,102.92 374.63,107.00 374.33,107.00 C372.98,107.00 355.91,123.39 348.81,131.50 C339.02,142.69 320.51,164.40 316.50,169.38 L 313.50 173.11 L 299.50 156.07 C291.80,146.69 285.12,139.02 284.65,139.01 C283.79,139.00 278.36,142.60 276.41,144.48 C275.81,145.06 272.78,147.29 269.66,149.43 C266.55,151.58 264.00,153.77 264.00,154.30 C264.00,154.83 266.92,159.20 270.50,164.00 C274.08,168.80 277.00,173.13 277.01,173.61 C277.01,174.10 279.15,177.02 281.76,180.10 C284.37,183.19 292.70,194.12 300.28,204.39 C307.86,214.67 314.46,222.84 314.94,222.54 C315.43,222.23 318.43,217.83 321.61,212.74 ZM 227.50 193.18 C243.07,190.69 244.48,190.29 244.27,188.48 C244.14,187.39 243.53,183.37 242.91,179.54 C239.17,156.47 251.06,129.61 272.23,113.32 C283.17,104.90 305.03,99.04 319.88,100.54 C327.80,101.34 346.33,107.18 350.41,110.17 C352.27,111.53 353.74,111.97 354.51,111.40 C355.16,110.90 357.46,109.29 359.60,107.82 C361.75,106.34 365.92,102.95 368.88,100.29 L 374.27 95.44 L 370.14 92.71 C362.31,87.53 347.48,80.16 340.78,78.12 C329.39,74.66 318.22,73.63 306.00,74.91 C281.39,77.49 264.81,85.09 246.00,102.43 C236.94,110.78 231.52,118.00 226.45,128.50 C221.09,139.60 218.42,149.10 216.96,162.32 C216.35,167.91 215.72,172.61 215.57,172.76 C215.12,173.21 208.21,154.95 206.57,149.00 C203.92,139.35 203.19,128.59 203.75,107.60 L 204.29 87.15 L 200.81 85.69 C193.59,82.68 193.22,82.68 191.57,85.86 C185.57,97.46 182.63,120.10 184.90,137.16 C187.02,153.06 193.86,174.29 199.60,182.75 C200.95,184.73 202.34,187.51 202.68,188.93 C203.71,193.08 206.07,196.00 208.37,195.95 C209.54,195.92 218.15,194.67 227.50,193.18 ZM 216.65 100.25 C219.41,96.54 222.44,92.30 223.39,90.84 L 225.12 88.18 L 236.73 92.08 C243.12,94.23 248.51,95.82 248.70,95.63 C248.89,95.44 246.12,90.98 242.53,85.72 C238.94,80.47 236.02,75.57 236.04,74.83 C236.06,74.10 239.17,69.45 242.95,64.50 C246.73,59.55 249.30,55.38 248.66,55.24 C248.02,55.10 242.57,56.54 236.54,58.45 C230.51,60.35 225.53,61.82 225.48,61.70 C225.43,61.59 222.04,56.79 217.94,51.03 L 210.50 40.56 L 210.22 53.61 L 209.94 66.66 L 198.27 70.47 L 186.60 74.27 L 194.05 76.97 C198.15,78.46 203.41,80.47 205.75,81.44 L 210.00 83.22 L 210.00 95.11 C210.00,101.65 210.37,107.00 210.82,107.00 C211.27,107.00 213.89,103.96 216.65,100.25 ZM 362.00 76.00 C349.28,66.02 327.86,54.43 312.35,49.11 C289.89,41.42 265.10,39.03 246.85,42.80 C237.93,44.65 224.96,49.45 225.03,50.89 C225.05,51.22 225.69,52.32 226.45,53.33 C227.78,55.08 228.34,55.01 239.67,51.45 C258.35,45.60 264.00,44.08 264.00,44.93 C264.00,45.36 262.51,47.69 260.68,50.11 C258.86,52.52 255.94,56.61 254.18,59.18 L 251.00 63.86 L 254.24 62.93 C259.37,61.46 281.24,61.83 289.44,63.52 C293.73,64.40 303.80,65.17 313.64,65.37 C332.95,65.74 341.52,67.52 355.36,74.02 C364.82,78.47 365.36,78.63 362.00,76.00 ZM 220.28 365.75 C229.96,341.28 230.27,340.66 231.59,343.18 C232.97,345.82 241.00,365.73 241.00,366.52 C241.00,366.78 236.23,367.00 230.39,367.00 C222.31,367.00 219.90,366.70 220.28,365.75 Z" fill="rgb(253,254,254)"/>
</g>
</svg>